<svg width="60" height="60" viewBox="0 0 60 60" fill="none" xmlns="http://www.w3.org/2000/svg">
<circle cx="30" cy="30" r="30" fill="#FAE100"/>
<g clip-path="url(#clip0_352_1499)">
<path d="M30 12C19.2321 12 10.5 18.9338 10.5 27.4902C10.5 33.0602 14.1997 37.9402 19.7513 40.6677C19.3425 42.1958 18.2755 46.209 18.0588 47.0676C17.7931 48.1314 18.4472 48.1191 18.8764 47.8357C19.2116 47.6098 24.2195 44.188 26.3821 42.7134C27.5553 42.89 28.7654 42.9804 30.0041 42.9804C40.772 42.9804 49.5041 36.0466 49.5041 27.4902C49.5041 18.9338 40.772 12 30 12Z" fill="#381E1F"/>
<path d="M16.395 24.6393H18.4022C18.4022 24.6393 18.4145 30.1806 18.4022 31.4705C18.4022 32.4111 20.4912 32.4234 20.4871 31.4828L20.4953 24.7092C20.4953 24.7092 21.1657 24.7133 22.4943 24.7133C23.7412 24.7133 23.7412 22.7416 22.4943 22.7416C21.0881 22.7416 16.3909 22.7046 16.3909 22.7046C15.2135 22.7046 15.2176 24.6393 16.3909 24.6393" fill="#FAE100"/>
<mask id="mask0_352_1499" style="mask-type:luminance" maskUnits="userSpaceOnUse" x="15" y="22" width="9" height="11">
<path d="M16.395 24.6393H18.4022C18.4022 24.6393 18.4145 30.1806 18.4022 31.4705C18.4022 32.4111 20.4912 32.4234 20.4871 31.4828L20.4953 24.7092C20.4953 24.7092 21.1657 24.7133 22.4943 24.7133C23.7412 24.7133 23.7412 22.7416 22.4943 22.7416C21.0881 22.7416 16.3909 22.7046 16.3909 22.7046C15.2135 22.7046 15.2176 24.6393 16.3909 24.6393" fill="white"/>
</mask>
<g mask="url(#mask0_352_1499)">
<path d="M23.7494 22.7046H15.2176V32.4234H23.7494V22.7046Z" fill="#FAE100"/>
</g>
<path d="M26.0019 24.9966L27.1179 28.5128H24.7918L26.0019 24.9966ZM24.751 23.3494C24.2563 24.4421 22.4739 29.6055 21.8811 30.9734C21.4519 31.9633 23.2997 32.7684 23.7289 31.7826L24.1296 30.3695H27.8006C27.8006 30.3695 27.6739 30.427 28.1604 31.721C28.5569 32.7684 30.462 32.0414 30.0654 30.9939C29.5013 29.4987 27.5513 24.1135 27.1956 23.3494C27.0321 22.9962 26.4434 22.7456 25.8752 22.7456C25.405 22.7456 24.9431 22.9181 24.7469 23.3494" fill="#FAE100"/>
<mask id="mask1_352_1499" style="mask-type:luminance" maskUnits="userSpaceOnUse" x="21" y="22" width="10" height="11">
<path d="M26.0019 24.9966L27.1179 28.5128H24.7918L26.0019 24.9966ZM24.751 23.3494C24.2563 24.4421 22.4739 29.6055 21.8811 30.9734C21.4519 31.9633 23.2997 32.7684 23.7289 31.7826L24.1296 30.3695H27.8006C27.8006 30.3695 27.6739 30.427 28.1604 31.721C28.5569 32.7684 30.462 32.0414 30.0654 30.9939C29.5013 29.4987 27.5513 24.1135 27.1956 23.3494C27.0321 22.9962 26.4434 22.7456 25.8752 22.7456C25.405 22.7456 24.9431 22.9181 24.7469 23.3494" fill="white"/>
</mask>
<g mask="url(#mask1_352_1499)">
<path d="M30.4661 22.7456H21.4519V32.7725H30.4661V22.7456Z" fill="#FAE100"/>
</g>
<path d="M30.7726 23.6742C30.7726 25.4282 30.7808 31.0804 30.7808 31.0804C30.7808 31.0804 30.6214 32.206 31.578 32.206C32.5346 32.206 34.6645 32.1936 35.6088 32.1936C36.5531 32.1936 36.545 30.1767 35.6047 30.1767C34.6645 30.1767 32.9393 30.1685 32.9393 30.1685C32.9393 30.1685 32.9475 24.9394 32.9434 23.6701C32.9434 23.054 32.3997 22.75 31.856 22.75C31.3123 22.75 30.7686 23.0581 30.7686 23.6783" fill="#FAE100"/>
<mask id="mask2_352_1499" style="mask-type:luminance" maskUnits="userSpaceOnUse" x="30" y="22" width="7" height="11">
<path d="M30.7726 23.6742C30.7726 25.4282 30.7808 31.0804 30.7808 31.0804C30.7808 31.0804 30.6214 32.206 31.578 32.206C32.5346 32.206 34.6645 32.1936 35.6088 32.1936C36.5531 32.1936 36.545 30.1767 35.6047 30.1767C34.6645 30.1767 32.9393 30.1685 32.9393 30.1685C32.9393 30.1685 32.9475 24.9394 32.9434 23.6701C32.9434 23.054 32.3997 22.75 31.856 22.75C31.3123 22.75 30.7686 23.0581 30.7686 23.6783" fill="white"/>
</mask>
<g mask="url(#mask2_352_1499)">
<path d="M36.5531 22.7461H30.6214V32.2021H36.5531V22.7461Z" fill="#FAE100"/>
</g>
<path d="M36.8066 23.3945C36.827 24.1627 36.7821 31.1211 36.7821 31.6346C36.7821 32.4479 38.8425 32.4479 38.8425 31.6346C38.8425 30.6898 38.8425 28.8988 38.8425 28.8988L39.4475 28.41L42.0925 32.0371C42.628 32.7478 44.3123 31.4662 43.7767 30.7555L40.9682 27.038C40.9682 27.038 42.8774 24.9637 43.6255 24.2161C44.0629 23.7765 42.7057 22.4045 42.2682 22.8441C41.8431 23.2672 38.8547 26.274 38.8547 26.274C38.8547 26.274 38.8833 24.3886 38.8547 23.3452C38.8425 22.9509 38.3601 22.7578 37.8654 22.7578C37.338 22.7578 36.7943 22.9755 36.8066 23.4027" fill="#FAE100"/>
<mask id="mask3_352_1499" style="mask-type:luminance" maskUnits="userSpaceOnUse" x="36" y="22" width="8" height="11">
<path d="M36.8066 23.3945C36.827 24.1627 36.7821 31.1211 36.7821 31.6346C36.7821 32.4479 38.8425 32.4479 38.8425 31.6346C38.8425 30.6898 38.8425 28.8988 38.8425 28.8988L39.4475 28.41L42.0925 32.0371C42.628 32.7478 44.3123 31.4662 43.7767 30.7555L40.9682 27.038C40.9682 27.038 42.8774 24.9637 43.6255 24.2161C44.0629 23.7765 42.7057 22.4045 42.2682 22.8441C41.8431 23.2672 38.8547 26.274 38.8547 26.274C38.8547 26.274 38.8833 24.3886 38.8547 23.3452C38.8425 22.9509 38.3601 22.7578 37.8654 22.7578C37.338 22.7578 36.7943 22.9755 36.8066 23.4027" fill="white"/>
</mask>
<g mask="url(#mask3_352_1499)">
<path d="M44.3123 22.4004H36.7821V32.7436H44.3123V22.4004Z" fill="#FAE100"/>
</g>
</g>
<defs>
<clipPath id="clip0_352_1499">
<rect width="39" height="36" fill="white" transform="translate(10.5 12)"/>
</clipPath>
</defs>
</svg>
