<?xml version="1.0" encoding="utf-8"?>
<!-- Generator: Adobe Illustrator 25.0.0, SVG Export Plug-In . SVG Version: 6.00 Build 0)  -->
<svg version="1.1" id="레이어_1" xmlns="http://www.w3.org/2000/svg" xmlns:xlink="http://www.w3.org/1999/xlink" x="0px"
	 y="0px" viewBox="0 0 60 60" style="enable-background:new 0 0 60 60;" xml:space="preserve">
<style type="text/css">
	.st0{fill:#4AB749;}
	.st1{fill:#FFFFFF;}
</style>
<circle class="st0" cx="30" cy="30" r="30"/>
<path class="st1" d="M43,18c-3,0-5.9,0-8.9,0c0,4,0,8,0,11.9c-2.7-3.9-5.3-8-8.2-11.9c-3-0.1-5.9,0-8.9,0c0,8,0,16,0,24
	c3,0,5.9,0,8.9,0c0-4-0.1-7.9,0-11.9c1,1.4,1.9,2.8,2.9,4.2c1.7,2.6,3.5,5.1,5.1,7.7c3,0.1,6,0,9,0c0-0.4,0.1-0.7,0.1-1.1
	C43,33.3,43,25.6,43,18L43,18z"/>
</svg>
