<svg width="60" height="60" viewBox="0 0 60 60" fill="none" xmlns="http://www.w3.org/2000/svg">
<g clip-path="url(#clip0_352_1535)">
<path d="M54.9264 12.1375C54.0003 12.0519 52.9694 11.9978 51.8425 12.0001C48.511 12.0113 46.052 12.5297 45.4964 12.6514C42.5911 13.2846 40.5025 14.2222 39.8933 14.5039C37.9564 15.4008 36.6265 16.3496 34.0425 18.2089C31.4786 20.0546 31.1372 20.5053 27.4464 23.266C24.0502 25.8059 23.1978 26.2792 22.3387 26.6713C21.2565 27.1649 18.938 28.2872 16.6107 28.1903C11.5208 27.9762 5.40896 22.8333 5.27954 16.264C5.25276 14.923 5.48036 13.6993 5.84185 12.604C2.54828 17.4607 0.620334 23.3359 0.620334 29.6664C0.620334 38.521 4.39143 46.4854 10.3984 52.0136C4.66366 57.6071 0 58.4748 0 58.4748C2.70894 59.4348 7.56674 60.7014 13.239 59.5272C15.3499 59.09 17.2667 58.3914 18.9827 57.5508C24.3515 54.9208 27.7544 50.88 28.9326 48.9351C35.3791 38.2934 34.288 34.7867 41.5959 21.4519C43.1311 18.6506 45.6704 15.9823 49.4014 14.1095C51.6819 12.9646 53.4826 12.4621 55 12.248C54.9755 12.2119 54.9487 12.1759 54.9241 12.1398L54.9264 12.1375Z" fill="#55E5BC"/>
<path d="M54.5949 13.0022C53.0954 13.2156 51.3157 13.7114 49.062 14.8386C45.3748 16.686 42.863 19.3182 41.348 22.0816C34.1258 35.2384 35.2042 38.6954 28.8332 49.1932C27.6688 51.1118 24.3058 55.0979 19 57.6923C22.5152 59.1774 26.3744 60 30.4254 60C46.7597 60 60 46.6521 60 30.1851C60 23.7846 57.9998 17.8576 54.5949 13V13.0022Z" fill="#D2FAF3"/>
<path d="M16.1849 27.994C18.4819 28.0906 20.77 26.9956 21.8381 26.515C22.686 26.1332 23.5273 25.6723 26.8791 23.1992C30.5217 20.5111 30.8586 20.0722 33.389 18.275C35.9392 16.4624 37.254 15.5386 39.1633 14.6674C39.7646 14.3931 41.8259 13.4802 44.6932 12.8636C45.2416 12.7451 47.6685 12.2404 50.9565 12.2294C52.0664 12.225 53.0839 12.2799 54 12.3633C48.6463 4.87816 39.8637 0 29.938 0C20.0124 0 10.8796 5.07785 5.55677 12.8153C5.2 13.8818 4.97757 15.0756 5.0018 16.379C5.12953 22.7757 11.1615 27.7833 16.1849 27.9918V27.994Z" fill="#071F54"/>
<path d="M30.5 15C30.7761 15 31 14.7761 31 14.5C31 14.2239 30.7761 14 30.5 14C30.2239 14 30 14.2239 30 14.5C30 14.7761 30.2239 15 30.5 15Z" fill="white"/>
<path d="M41.5 8C41.7761 8 42 7.77614 42 7.5C42 7.22386 41.7761 7 41.5 7C41.2239 7 41 7.22386 41 7.5C41 7.77614 41.2239 8 41.5 8Z" fill="white"/>
<path d="M19.5 20C19.7761 20 20 19.5523 20 19C20 18.4477 19.7761 18 19.5 18C19.2239 18 19 18.4477 19 19C19 19.5523 19.2239 20 19.5 20Z" fill="white"/>
<path d="M33.5 6C33.7761 6 34 5.77614 34 5.5C34 5.22386 33.7761 5 33.5 5C33.2239 5 33 5.22386 33 5.5C33 5.77614 33.2239 6 33.5 6Z" fill="white"/>
<path d="M30.5 31C31.3284 31 32 30.3284 32 29.5C32 28.6716 31.3284 28 30.5 28C29.6716 28 29 28.6716 29 29.5C29 30.3284 29.6716 31 30.5 31Z" fill="#071F54"/>
</g>
<defs>
<clipPath id="clip0_352_1535">
<rect width="60" height="60" fill="white"/>
</clipPath>
</defs>
</svg>
